<?xml version="1.0" encoding="UTF-8"?><svg id="Capa_1" xmlns="http://www.w3.org/2000/svg" viewBox="0 0 2340.14 659.58"><defs><style>.cls-1{fill:#cc2131;}.cls-1,.cls-2{fill-rule:evenodd;}</style></defs><path class="cls-2" d="m920.93,448.19l-31.13,144.72h-71.59l118.28-524.47h84.81l111.28,524.47h-72.37l-30.35-144.72h-108.93Zm100.37-58.36l-24.12-125.3c-7-35.8-14.01-82.46-19.44-119.83h-3.13c-5.43,38.13-13.24,86.37-20.22,119.83l-24.9,125.3h91.81,0ZM1405.86,54.44v441.21c0,28.81,1.56,70.83,3.1,97.27h-63.02l-4.67-45.9h-2.33c-12.45,26.45-41.24,52.14-79.36,52.14-70.04,0-112.84-76.28-112.84-193.76,0-133.85,56.79-196.88,116.73-196.88,30.34,0,54.46,14.02,67.69,42.8h1.56V54.44h73.15Zm-73.16,304.26c0-6.99,0-15.55-.78-23.36-3.89-34.23-23.35-63.8-49.79-63.8-45.93,0-61.48,63.8-61.48,133.85,0,77.82,20.23,132.28,59.14,132.28,16.34,0,38.12-8.56,50.57-53.68,1.56-6.23,2.33-15.58,2.33-24.11v-101.18h0Zm247.4,240.45c-75.47,0-129.96-64.59-129.96-194.52,0-137.75,64.58-196.12,133.84-196.12,74.71,0,128.39,66.92,128.39,194.55,0,150.19-73.93,196.09-131.5,196.09h-.77,0Zm2.32-57.57c45.12,0,55.25-80.15,55.25-137.73s-10.12-137.74-56.79-137.74-57.59,80.92-57.59,137.74c0,63.02,10.89,137.73,58.36,137.73h.77Zm174.04-487.13h73.14v203.09h1.56c19.45-34.23,45.91-49.03,79.37-49.03,64.58,0,105.06,73.15,105.06,189.1,0,135.39-55.25,201.54-117.51,201.54-37.35,0-58.36-20.25-74.72-53.71h-3.09l-3.9,47.47h-63.02c1.56-25.67,3.11-68.47,3.11-97.27V54.44h0Zm73.14,404.62c0,8.59.78,17.15,3.11,23.36,11.66,45.93,34.24,55.25,49.01,55.25,43.58,0,59.92-57.57,59.92-135.39,0-72.37-17.11-130.74-60.7-130.74-24.12,0-43.58,28.79-49.03,56.03-1.56,7.78-2.33,17.91-2.33,25.68v105.81h.01,0Zm293.92-40.45c.78,97.27,42.79,121.38,87.14,121.38,26.46,0,49.03-6.21,65.37-14.01l10.89,52.92c-22.57,11.67-56.81,17.91-90.27,17.91-94.93,0-144.73-71.59-144.73-188.32,0-123.73,56.79-199.99,135.39-199.99s115.17,75.48,115.17,170.44c0,18.66-.79,30.35-1.56,40.45l-177.41-.78h0Zm109.71-52.13c.78-66.92-22.57-102.71-51.35-102.71-38.14,0-55.26,55.25-57.59,102.71h108.93Z"/><path class="cls-1" d="m405.98,69.84h218.5v523.07L405.98,69.84Zm-153.93,0H33.4v523.07L252.06,69.84Zm76.98,192.77l139.22,330.3h-91.23l-41.63-105.2h-101.9l95.55-225.1h0Z"/><path class="cls-2" d="m2296.27,207.54c9.17.04,16.57,7.51,16.52,16.68,0,.05,0,.1,0,.14,0,9.49-7.33,16.9-16.6,16.9s-16.68-7.39-16.68-16.9c-.05-9.24,7.4-16.77,16.64-16.82.01,0,.03,0,.04,0h.08Zm-.08,2.61c-7.39,0-13.46,6.37-13.46,14.21s6.07,14.28,13.54,14.28c7.47.08,13.45-6.28,13.45-14.2s-5.98-14.29-13.45-14.29h-.08Zm-3.14,24.02h-2.98v-18.78c1.57-.22,3.07-.45,5.32-.45,2.84,0,4.7.61,5.82,1.43s1.72,2.09,1.72,3.89c0,2.46-1.65,3.97-3.67,4.57v.14c1.65.3,2.78,1.8,3.14,4.57.45,2.92.89,4.03,1.21,4.64h-3.14c-.45-.61-.89-2.32-1.27-4.79-.45-2.4-1.65-3.29-4.05-3.29h-2.09v8.08h-.01Zm0-10.4h2.17c2.46,0,4.58-.89,4.58-3.22,0-1.65-1.21-3.29-4.58-3.29-.96,0-1.65.08-2.17.16v6.36ZM653.29,69.84c9.17.04,16.57,7.51,16.52,16.68,0,.05,0,.1,0,.14,0,9.49-7.33,16.9-16.6,16.9s-16.68-7.39-16.68-16.9c-.05-9.24,7.4-16.77,16.64-16.82.01,0,.03,0,.04,0h.08Zm-.08,2.61c-7.41,0-13.46,6.37-13.46,14.21s6.06,14.28,13.54,14.28c7.47.08,13.46-6.28,13.46-14.2s-5.99-14.29-13.46-14.29h-.08Zm-3.14,24.02h-3v-18.78c1.76-.29,3.54-.44,5.32-.44,2.84,0,4.71.58,5.82,1.41,1.13.82,1.72,2.1,1.72,3.89,0,2.46-1.65,3.97-3.67,4.57v.14c1.65.3,2.78,1.8,3.15,4.58.44,2.92.89,4.03,1.19,4.64h-3.14c-.45-.61-.91-2.32-1.27-4.79-.45-2.4-1.65-3.29-4.05-3.29h-2.09v8.07h0Zm0-10.4h2.17c2.46,0,4.57-.89,4.57-3.22,0-1.65-1.19-3.29-4.57-3.29-.97,0-1.65.08-2.17.16v6.36Z"/></svg>