<svg width="224" height="31" viewBox="0 0 224 31" fill="none" xmlns="http://www.w3.org/2000/svg">
<path d="M32.24 29.2001V15.0001H34.9V15.5401C35.7667 15.0201 36.5267 14.7601 37.18 14.7601C38.5267 14.7601 39.52 15.1668 40.16 15.9801C40.8 16.7801 41.12 18.1468 41.12 20.0801C41.12 22.0135 40.7667 23.3601 40.06 24.1201C39.3533 24.8668 38.1933 25.2401 36.58 25.2401C36.14 25.2401 35.6667 25.2001 35.16 25.1201L34.92 25.0801V29.2001H32.24ZM36.66 17.1601C36.1667 17.1601 35.6667 17.2601 35.16 17.4601L34.92 17.5601V22.8001C35.52 22.8801 36.0067 22.9201 36.38 22.9201C37.1533 22.9201 37.68 22.6935 37.96 22.2401C38.2533 21.7868 38.4 21.0135 38.4 19.9201C38.4 18.0801 37.82 17.1601 36.66 17.1601Z" fill="black"/>
<path d="M51.6189 11.0001V25.0001H48.9589V24.5801C48.0256 25.0201 47.2189 25.2401 46.5389 25.2401C45.0856 25.2401 44.0722 24.8201 43.4989 23.9801C42.9256 23.1401 42.6389 21.8135 42.6389 20.0001C42.6389 18.1735 42.9789 16.8468 43.6589 16.0201C44.3522 15.1801 45.3922 14.7601 46.7789 14.7601C47.2056 14.7601 47.7989 14.8268 48.5589 14.9601L48.9389 15.0401V11.0001H51.6189ZM48.6589 22.6001L48.9389 22.5401V17.2801C48.2056 17.1468 47.5522 17.0801 46.9789 17.0801C45.8989 17.0801 45.3589 18.0401 45.3589 19.9601C45.3589 21.0001 45.4789 21.7401 45.7189 22.1801C45.9589 22.6201 46.3522 22.8401 46.8989 22.8401C47.4589 22.8401 48.0456 22.7601 48.6589 22.6001Z" fill="black"/>
<path d="M57.2555 17.2801V25.0001H54.5755V17.2801H53.4955V15.0001H54.5755V14.5601C54.5755 13.1201 54.7888 12.1268 55.2155 11.5801C55.6421 11.0335 56.4021 10.7601 57.4955 10.7601C57.9755 10.7601 58.5955 10.8268 59.3555 10.9601L59.7755 11.0201L59.7355 13.2001C59.1488 13.1735 58.6555 13.1601 58.2555 13.1601C57.8555 13.1601 57.5888 13.2668 57.4555 13.4801C57.3221 13.6935 57.2555 14.0601 57.2555 14.5801V15.0001H59.6755V17.2801H57.2555Z" fill="black"/>
<path d="M66.7839 17.2801H64.3239V21.3801C64.3239 21.7801 64.3306 22.0668 64.3439 22.2401C64.3706 22.4001 64.4439 22.5401 64.5639 22.6601C64.6972 22.7801 64.8972 22.8401 65.1639 22.8401L66.6839 22.8001L66.8039 24.9401C65.9106 25.1401 65.2306 25.2401 64.7639 25.2401C63.5639 25.2401 62.7439 24.9735 62.3039 24.4401C61.8639 23.8935 61.6439 22.8935 61.6439 21.4401V17.2801H60.4639V15.0001H61.6439V12.2201H64.3239V15.0001H66.7839V17.2801Z" fill="black"/>
<path d="M69.0691 16.1401C69.7757 15.2201 70.9557 14.7601 72.6091 14.7601C74.2624 14.7601 75.4424 15.2201 76.1491 16.1401C76.8557 17.0468 77.2091 18.3268 77.2091 19.9801C77.2091 23.4868 75.6757 25.2401 72.6091 25.2401C69.5424 25.2401 68.0091 23.4868 68.0091 19.9801C68.0091 18.3268 68.3624 17.0468 69.0691 16.1401ZM71.1291 22.2401C71.409 22.7201 71.9024 22.9601 72.6091 22.9601C73.3157 22.9601 73.8024 22.7201 74.0691 22.2401C74.3491 21.7601 74.4891 21.0068 74.4891 19.9801C74.4891 18.9535 74.3491 18.2068 74.0691 17.7401C73.8024 17.2735 73.3157 17.0401 72.6091 17.0401C71.9024 17.0401 71.409 17.2735 71.1291 17.7401C70.8624 18.2068 70.7291 18.9535 70.7291 19.9801C70.7291 21.0068 70.8624 21.7601 71.1291 22.2401Z" fill="black"/>
<path d="M79.7136 16.1401C80.4202 15.2201 81.6003 14.7601 83.2536 14.7601C84.9069 14.7601 86.0869 15.2201 86.7936 16.1401C87.5002 17.0468 87.8536 18.3268 87.8536 19.9801C87.8536 23.4868 86.3203 25.2401 83.2536 25.2401C80.1869 25.2401 78.6536 23.4868 78.6536 19.9801C78.6536 18.3268 79.0069 17.0468 79.7136 16.1401ZM81.7736 22.2401C82.0536 22.7201 82.5469 22.9601 83.2536 22.9601C83.9603 22.9601 84.4469 22.7201 84.7136 22.2401C84.9936 21.7601 85.1336 21.0068 85.1336 19.9801C85.1336 18.9535 84.9936 18.2068 84.7136 17.7401C84.4469 17.2735 83.9603 17.0401 83.2536 17.0401C82.5469 17.0401 82.0536 17.2735 81.7736 17.7401C81.5069 18.2068 81.3736 18.9535 81.3736 19.9801C81.3736 21.0068 81.5069 21.7601 81.7736 22.2401Z" fill="black"/>
<path d="M89.9381 25.0001V11.0001H92.6181V25.0001H89.9381Z" fill="black"/>
<path d="M95.0887 20.9001V18.4601H101.009V20.9001H95.0887Z" fill="black"/>
<path d="M102.633 15.0001H104.233L106.573 23.7001H107.313L109.733 15.0001H111.273L108.453 25.0001H105.453L102.633 15.0001Z" fill="#E30613"/>
<path d="M119.826 23.7601L120.406 23.7001L120.446 24.8801C118.926 25.0935 117.626 25.2001 116.546 25.2001C115.106 25.2001 114.086 24.7868 113.486 23.9601C112.886 23.1201 112.586 21.8201 112.586 20.0601C112.586 16.5535 113.979 14.8001 116.766 14.8001C118.113 14.8001 119.119 15.1801 119.786 15.9401C120.453 16.6868 120.786 17.8668 120.786 19.4801L120.706 20.6201H114.106C114.106 21.7268 114.306 22.5468 114.706 23.0801C115.106 23.6135 115.799 23.8801 116.786 23.8801C117.786 23.8801 118.799 23.8401 119.826 23.7601ZM119.286 19.4201C119.286 18.1935 119.086 17.3268 118.686 16.8201C118.299 16.3135 117.659 16.0601 116.766 16.0601C115.886 16.0601 115.219 16.3268 114.766 16.8601C114.326 17.3935 114.099 18.2468 114.086 19.4201H119.286Z" fill="#E30613"/>
<path d="M123.124 25.0001V15.0001H124.604V16.3601C125.764 15.5601 126.984 15.0335 128.264 14.7801V16.3001C127.704 16.4068 127.117 16.5735 126.504 16.8001C125.904 17.0268 125.444 17.2268 125.124 17.4001L124.624 17.6601V25.0001H123.124Z" fill="#E30613"/>
<path d="M133.761 29.7001C132.161 29.7001 131.041 29.4801 130.401 29.0401C129.774 28.6135 129.461 27.8268 129.461 26.6801C129.461 26.1335 129.581 25.6868 129.821 25.3401C130.061 25.0068 130.468 24.6268 131.041 24.2001C130.668 23.9468 130.481 23.4868 130.481 22.8201C130.481 22.5935 130.648 22.1735 130.981 21.5601L131.161 21.2401C130.108 20.7601 129.581 19.7535 129.581 18.2201C129.581 15.9401 130.828 14.8001 133.321 14.8001C133.961 14.8001 134.554 14.8668 135.101 15.0001L135.401 15.0601L138.361 14.9801V16.2601L136.461 16.2201C136.901 16.6601 137.121 17.3268 137.121 18.2201C137.121 19.4735 136.808 20.3535 136.181 20.8601C135.568 21.3535 134.594 21.6001 133.261 21.6001C132.901 21.6001 132.574 21.5735 132.281 21.5201C132.041 22.1068 131.921 22.4868 131.921 22.6601C131.921 23.0735 132.048 23.3335 132.301 23.4401C132.554 23.5335 133.321 23.5801 134.601 23.5801C135.881 23.5801 136.801 23.7801 137.361 24.1801C137.921 24.5801 138.201 25.3601 138.201 26.5201C138.201 28.6401 136.721 29.7001 133.761 29.7001ZM130.941 26.5601C130.941 27.2668 131.134 27.7535 131.521 28.0201C131.921 28.3001 132.648 28.4401 133.701 28.4401C134.768 28.4401 135.528 28.2935 135.981 28.0001C136.448 27.7068 136.681 27.2135 136.681 26.5201C136.681 25.8401 136.514 25.4001 136.181 25.2001C135.848 25.0001 135.194 24.9001 134.221 24.9001L132.061 24.8001C131.621 25.1201 131.321 25.4001 131.161 25.6401C131.014 25.8801 130.941 26.1868 130.941 26.5601ZM131.081 18.2201C131.081 19.0068 131.254 19.5668 131.601 19.9001C131.961 20.2335 132.548 20.4001 133.361 20.4001C134.174 20.4001 134.754 20.2335 135.101 19.9001C135.448 19.5668 135.621 19.0068 135.621 18.2201C135.621 17.4201 135.448 16.8535 135.101 16.5201C134.754 16.1868 134.174 16.0201 133.361 16.0201C132.548 16.0201 131.961 16.1935 131.601 16.5401C131.254 16.8735 131.081 17.4335 131.081 18.2201Z" fill="#E30613"/>
<path d="M140.294 25.0001V10.6401H141.794V25.0001H140.294Z" fill="#E30613"/>
<path d="M151.603 23.7601L152.183 23.7001L152.223 24.8801C150.703 25.0935 149.403 25.2001 148.323 25.2001C146.883 25.2001 145.863 24.7868 145.263 23.9601C144.663 23.1201 144.363 21.8201 144.363 20.0601C144.363 16.5535 145.757 14.8001 148.543 14.8001C149.89 14.8001 150.897 15.1801 151.563 15.9401C152.23 16.6868 152.563 17.8668 152.563 19.4801L152.483 20.6201H145.883C145.883 21.7268 146.083 22.5468 146.483 23.0801C146.883 23.6135 147.577 23.8801 148.563 23.8801C149.563 23.8801 150.577 23.8401 151.603 23.7601ZM151.063 19.4201C151.063 18.1935 150.863 17.3268 150.463 16.8201C150.077 16.3135 149.437 16.0601 148.543 16.0601C147.663 16.0601 146.997 16.3268 146.543 16.8601C146.103 17.3935 145.877 18.2468 145.863 19.4201H151.063Z" fill="#E30613"/>
<path d="M154.901 25.0001V15.0001H156.401V25.0001H154.901ZM154.901 12.7401V11.0001H156.401V12.7401H154.901Z" fill="#E30613"/>
<path d="M163.016 14.8001C163.456 14.8001 164.203 14.8801 165.256 15.0401L165.736 15.1001L165.676 16.3201C164.609 16.2001 163.823 16.1401 163.316 16.1401C162.183 16.1401 161.409 16.4135 160.996 16.9601C160.596 17.4935 160.396 18.4935 160.396 19.9601C160.396 21.4135 160.583 22.4268 160.956 23.0001C161.343 23.5735 162.136 23.8601 163.336 23.8601L165.696 23.6801L165.756 24.9201C164.516 25.1068 163.589 25.2001 162.976 25.2001C161.416 25.2001 160.336 24.8001 159.736 24.0001C159.149 23.2001 158.856 21.8535 158.856 19.9601C158.856 18.0535 159.176 16.7201 159.816 15.9601C160.456 15.1868 161.523 14.8001 163.016 14.8001Z" fill="#E30613"/>
<path d="M169.487 25.0001H167.987V10.6401H169.487V15.5601C170.554 15.0535 171.58 14.8001 172.567 14.8001C173.9 14.8001 174.794 15.1601 175.247 15.8801C175.714 16.6001 175.947 17.8801 175.947 19.7201V25.0001H174.447V19.7601C174.447 18.3735 174.307 17.4268 174.027 16.9201C173.76 16.4001 173.187 16.1401 172.307 16.1401C171.467 16.1401 170.654 16.2935 169.867 16.6001L169.487 16.7401V25.0001Z" fill="#E30613"/>
<path d="M178.629 25.0001V22.7201H180.269V25.0001H178.629Z" fill="#E30613"/>
<path d="M186.785 14.8001C187.225 14.8001 187.972 14.8801 189.025 15.0401L189.505 15.1001L189.445 16.3201C188.379 16.2001 187.592 16.1401 187.085 16.1401C185.952 16.1401 185.179 16.4135 184.765 16.9601C184.365 17.4935 184.165 18.4935 184.165 19.9601C184.165 21.4135 184.352 22.4268 184.725 23.0001C185.112 23.5735 185.905 23.8601 187.105 23.8601L189.465 23.6801L189.525 24.9201C188.285 25.1068 187.359 25.2001 186.745 25.2001C185.185 25.2001 184.105 24.8001 183.505 24.0001C182.919 23.2001 182.625 21.8535 182.625 19.9601C182.625 18.0535 182.945 16.7201 183.585 15.9601C184.225 15.1868 185.292 14.8001 186.785 14.8001Z" fill="#E30613"/>
<path d="M191.199 19.9801C191.199 18.1535 191.526 16.8335 192.179 16.0201C192.833 15.2068 193.933 14.8001 195.479 14.8001C197.039 14.8001 198.139 15.2068 198.779 16.0201C199.433 16.8335 199.759 18.1535 199.759 19.9801C199.759 21.8068 199.453 23.1335 198.839 23.9601C198.226 24.7868 197.106 25.2001 195.479 25.2001C193.853 25.2001 192.733 24.7868 192.119 23.9601C191.506 23.1335 191.199 21.8068 191.199 19.9801ZM192.739 19.9601C192.739 21.4135 192.913 22.4335 193.259 23.0201C193.619 23.6068 194.359 23.9001 195.479 23.9001C196.613 23.9001 197.353 23.6135 197.699 23.0401C198.046 22.4535 198.219 21.4268 198.219 19.9601C198.219 18.4935 198.026 17.4868 197.639 16.9401C197.253 16.3801 196.533 16.1001 195.479 16.1001C194.439 16.1001 193.719 16.3801 193.319 16.9401C192.933 17.4868 192.739 18.4935 192.739 19.9601Z" fill="#E30613"/>
<path d="M203.706 25.0001H202.206V15.0001H203.686V15.7001C204.686 15.1001 205.659 14.8001 206.606 14.8001C207.846 14.8001 208.712 15.1401 209.206 15.8201C209.646 15.5535 210.212 15.3201 210.906 15.1201C211.612 14.9068 212.232 14.8001 212.766 14.8001C214.099 14.8001 214.992 15.1601 215.446 15.8801C215.912 16.5868 216.146 17.8668 216.146 19.7201V25.0001H214.646V19.7601C214.646 18.3735 214.512 17.4268 214.246 16.9201C213.979 16.4001 213.412 16.1401 212.546 16.1401C212.106 16.1401 211.652 16.2068 211.186 16.3401C210.719 16.4601 210.359 16.5801 210.106 16.7001L209.726 16.8801C209.899 17.3201 209.986 18.2935 209.986 19.8001V25.0001H208.486V19.8401C208.486 18.4001 208.352 17.4268 208.086 16.9201C207.832 16.4001 207.266 16.1401 206.386 16.1401C205.959 16.1401 205.519 16.2068 205.066 16.3401C204.626 16.4601 204.286 16.5801 204.046 16.7001L203.706 16.8801V25.0001Z" fill="#E30613"/>
<path d="M18 10H1V29H18V10Z" stroke="#E30613" stroke-width="2"/>
<path d="M23 5H7V24H23V5Z" stroke="#E30613" stroke-width="2"/>
</svg>
