<svg width="128" height="30" viewBox="0 0 128 30" fill="none" xmlns="http://www.w3.org/2000/svg">
<path fill-rule="evenodd" clip-rule="evenodd" d="M10.3251 5.55337C15.7704 5.55337 18.2698 8.86952 18.2698 15.1099C18.2698 20.7775 15.6811 24.5459 10.3251 24.5459C8.41866 24.5459 6.74309 23.974 5.44138 23.0234L5.14769 22.7974L5.08818 22.8577L5.14157 28.2399C5.14472 28.5574 4.9614 28.8414 4.68353 28.9697L4.55892 29.0148L0.983392 29.9736C0.918013 29.9911 0.850668 30 0.783037 30C0.398629 30 0.078917 29.7194 0.0126158 29.3493L0 29.2067V6.69102C0 6.30155 0.277 5.97763 0.642285 5.91046L0.783037 5.89768H3.43842C3.7393 5.89768 4.00938 6.0717 4.13986 6.3383L4.18692 6.45799L4.55258 7.66365C5.95108 6.33719 7.73641 5.55337 10.3251 5.55337ZM37.0001 0.142098C37.3845 0.142098 37.7042 0.422741 37.7705 0.792833L37.7831 0.935436V23.4511C37.7831 23.8405 37.5061 24.1645 37.1408 24.2316L37.0001 24.2444H34.3447C34.0438 24.2444 33.7737 24.0704 33.6433 23.8038L33.5962 23.6841L33.2305 22.4785C31.832 23.8049 30.0467 24.5887 27.458 24.5887C22.0127 24.5887 19.5133 21.2726 19.5133 15.0322C19.5133 9.36457 22.102 5.59621 27.458 5.59621C29.3645 5.59621 31.04 6.16808 32.3417 7.11871L32.6354 7.34473L32.6949 7.28443L32.6415 1.90223C32.6384 1.58467 32.8217 1.30065 33.0996 1.1724L33.2242 1.12732L36.7997 0.168507C36.8651 0.150975 36.9324 0.142098 37.0001 0.142098ZM104.769 5.79137C109.888 5.79137 113.184 8.74387 113.184 14.291L113.175 14.6726C113.163 14.9579 113.14 15.305 113.105 15.7138C113.069 16.1237 112.731 16.4383 112.325 16.4383H101.003C101.268 19.0925 103.033 20.2556 106.475 20.2556L107.135 20.2524C108.098 20.2388 108.477 20.1713 109.801 19.8498C109.94 19.816 110.109 19.7573 110.307 19.6736C110.662 19.5238 111.064 19.6583 111.265 19.9741L111.334 20.1074L112.267 22.4365C112.43 22.8425 112.237 23.3052 111.837 23.4701L111.766 23.4953C109.318 24.2344 107.349 24.586 105.858 24.5502C98.886 24.3827 95.7655 21.0012 95.7655 14.9769C95.7655 9.51927 98.6783 5.79137 104.769 5.79137ZM126.048 5.8842C126.393 5.8842 126.719 5.90688 127.021 5.94518L127.365 6.00164C127.79 6.08456 128.068 6.50049 127.986 6.9307L127.961 7.02863L126.902 10.2872C126.774 10.682 126.367 10.9096 125.969 10.8088L125.723 10.7526C125.686 10.7452 125.651 10.7388 125.618 10.7334C125.3 10.6818 124.961 10.6559 124.577 10.6559C121.812 10.6559 120.841 12.5348 120.841 15.6364V23.462C120.841 23.9001 120.49 24.2553 120.058 24.2553H116.563C116.13 24.2553 115.78 23.9001 115.78 23.462V7.15471C115.78 6.71656 116.13 6.36137 116.563 6.36137H119.15C119.531 6.36137 119.858 6.64041 119.922 7.02181L120.311 9.34369H120.399C121.635 7.07713 123.636 5.8842 126.048 5.8842ZM72.3404 6.8817L72.4743 6.90529L76.1166 7.89298C76.4049 7.97115 76.6163 8.21248 76.6647 8.50308L76.6752 8.63031V23.492C76.6752 23.8667 76.4087 24.1784 76.0572 24.243L75.9218 24.2553H72.2796C71.9097 24.2553 71.6021 23.9853 71.5383 23.6292L71.5262 23.492V7.64262C71.5262 7.57599 71.5348 7.50964 71.5518 7.44527C71.6355 7.12855 71.9039 6.91192 72.2082 6.88256L72.3404 6.8817ZM68.9905 0C69.0722 0 69.1534 0.0129501 69.2311 0.0383804C69.5969 0.158052 69.816 0.52465 69.7669 0.897477L69.7356 1.03711L68.6752 4.36437C68.5858 4.64515 68.3518 4.84836 68.0729 4.90069L67.9301 4.91394H59.9024V9.46611H67.3017C67.6933 9.4702 68.0109 9.75419 68.0735 10.125L68.0847 10.2677L68.054 13.2633C68.05 13.6499 67.7736 13.9696 67.4108 14.0358L67.271 14.0484H59.9024V23.4511C59.9024 23.8405 59.6253 24.1645 59.2601 24.2316L59.1193 24.2444H55.58C55.1956 24.2444 54.8759 23.9638 54.8096 23.5937L54.7969 23.4511V2.11504C54.7969 1.01565 55.6249 0.112169 56.6835 0.00968206L56.8845 0H68.9905ZM49.6023 0.109481C50.1238 0.109481 50.6634 0.146014 51.1831 0.208135C51.4325 0.237932 51.7368 0.287411 52.096 0.356572L52.1907 0.381335C52.542 0.498361 52.751 0.852202 52.7018 1.21063L52.671 1.3448L52.1469 2.96013C52.0384 3.2945 51.7182 3.5103 51.3718 3.48263L51.2759 3.47572C51.0566 3.46209 50.8353 3.45578 50.614 3.45578C48.5504 3.45578 47.749 4.13597 47.6741 5.21203L47.6682 5.38518V5.95797H51.408C51.7924 5.95797 52.1121 6.23862 52.1784 6.60871L52.191 6.75131V8.84255C52.191 9.23201 51.914 9.55593 51.5487 9.62311L51.408 9.63589H47.6682V23.4511C47.6682 23.8405 47.3912 24.1645 47.0259 24.2316L46.8851 24.2444H43.3333C42.9489 24.2444 42.6292 23.9638 42.5629 23.5937L42.5502 23.4511V9.63589H40.6553C40.2709 9.63589 39.9512 9.35524 39.8849 8.98515L39.8723 8.84255V6.75131C39.8723 6.36184 40.1493 6.03793 40.5145 5.97075L40.6553 5.95797H42.5205V5.38518C42.5205 2.58152 44.6034 0.109481 49.6023 0.109481ZM88.8277 2.49108C88.8965 2.49108 88.9649 2.50025 89.0313 2.51835L92.5848 3.48751C92.9267 3.58076 93.1643 3.89485 93.1643 4.25358V23.4473C93.1643 23.8854 92.8137 24.2406 92.3813 24.2406H88.8277C88.3953 24.2406 88.0447 23.8854 88.0447 23.4473V3.28442C88.0447 2.84627 88.3953 2.49108 88.8277 2.49108ZM80.5902 2.49108C80.6589 2.49108 80.7274 2.50025 80.7937 2.51835L84.3473 3.48751C84.6891 3.58076 84.9267 3.89485 84.9267 4.25358V23.4473C84.9267 23.8854 84.5762 24.2406 84.1437 24.2406H80.5902C80.1577 24.2406 79.8072 23.8854 79.8072 23.4473V3.28442C79.8072 2.84627 80.1577 2.49108 80.5902 2.49108ZM28.9458 10.0278C25.9405 10.0278 24.8098 11.505 24.8098 15.2432C24.8098 19.102 25.7322 20.6093 28.9458 20.6093C30.8427 20.6093 31.9812 19.8674 32.5329 19.1537L32.6354 19.0116V11.5351C31.9511 10.6609 30.6418 10.0278 28.9458 10.0278ZM8.83736 9.53275C6.94045 9.53275 5.80196 10.2746 5.25025 10.9884L5.14769 11.1305V18.607C5.83206 19.4812 7.1413 20.1143 8.83736 20.1143C11.8427 20.1143 12.9734 18.6371 12.9734 14.8989C12.9734 11.0401 12.0509 9.53275 8.83736 9.53275ZM104.909 9.87715C102.291 9.87715 101.232 10.9806 100.996 13.3068H108.676C108.617 10.9806 107.204 9.87715 104.909 9.87715ZM72.3369 0.637229L72.4709 0.660845L76.1099 1.64827C76.3981 1.72648 76.6095 1.9678 76.6579 2.25836L76.6684 2.38557V4.46356C76.6684 4.53023 76.6598 4.59662 76.6427 4.66102C76.547 5.02298 76.21 5.25416 75.854 5.22447L75.7201 5.20086L72.0811 4.21343C71.7929 4.13522 71.5815 3.89391 71.5331 3.60334L71.5226 3.47613V1.39814C71.5226 1.33147 71.5312 1.26508 71.5483 1.20068C71.632 0.883969 71.9005 0.66738 72.2048 0.63807L72.3369 0.637229Z" fill="#E8501F"/>
</svg>
