<?xml version="1.0" encoding="utf-8"?>
<!-- Generator: Adobe Illustrator 27.3.0, SVG Export Plug-In . SVG Version: 6.00 Build 0)  -->
<svg version="1.1" id="Capa_1" xmlns="http://www.w3.org/2000/svg" xmlns:xlink="http://www.w3.org/1999/xlink" x="0px" y="0px"
	 viewBox="0 0 120 45" style="enable-background:new 0 0 120 45;" xml:space="preserve">
<style type="text/css">
	.st0{fill:#1C1C1C;}
	.st1{fill:#5E5E5E;}
	.st2{fill:#FBB03B;}
	.st3{fill:#009245;}
</style>
<g>
	<path class="st0" d="M51.2,28.5V16.7h5.3c2.4,0,3.6,1.1,3.6,3.3c0,2.4-1.6,3.8-4.9,4.3l-0.3-1.9c2-0.4,3-1.1,3-2.3
		c0-1-0.5-1.5-1.5-1.5h-2.9v9.8L51.2,28.5z M66.1,26.6c2.4,0,3.7-1.4,3.7-4.3c0-2.4-1.2-3.7-3.7-3.7h-2.4v8H66.1z M61.5,28.5V16.7
		h4.6c3.9,0,5.8,1.9,5.8,5.6c0,4.1-1.9,6.2-5.8,6.2L61.5,28.5z M81.5,16.7v1.9h-5.6v3h5.3v1.9h-5.3v5h-2.1V16.7L81.5,16.7z"/>
	<path class="st1" d="M83.1,28v-2c1.2,0.4,2.5,0.7,4,0.7c1.8,0,2.7-0.6,2.7-1.8c0-0.9-0.6-1.3-1.7-1.3h-1.8c-2.4,0-3.6-1.1-3.6-3.3
		c0-2.4,1.7-3.6,5.1-3.6c1.3,0,2.6,0.2,3.7,0.6v2c-1.2-0.4-2.4-0.7-3.7-0.7c-2,0-3,0.6-3,1.7c0,0.9,0.5,1.3,1.4,1.3h1.8
		c2.6,0,3.8,1.1,3.8,3.3c0,2.5-1.6,3.7-4.9,3.7C85.6,28.6,84.3,28.4,83.1,28L83.1,28z M95,28.5h-2.2l5-11.8h2.3l5.1,11.8h-2.3
		l-1.3-3.2h-3.9l0.7-1.9h2.4L98.9,19L95,28.5z M106.7,28.5V16.7h2.3l4,8.9l3.9-8.9h2.2v11.8h-2v-8.2l-3.2,8.2H112l-3.3-8.2v8.2
		L106.7,28.5z"/>
	<path class="st2" d="M21.8,1.9c-4,0-7.7,1.1-10.8,3l-0.2,0.1C25.3,9,29.5,15.7,30,22c0.3,3.7-1.9,5.6-1.9,5.6
		c6.9-0.6,14.3-7.4,14.3-7.4c0,0,0,0,0,0C41.1,10,32.7,1.9,21.8,1.9 M3.8,33.1c1.9,3.3,4.7,6,8,7.8l0.2,0.1
		C8.1,26.6,11.8,19.6,17.1,16c3.1-2.1,5.8-1.1,5.8-1.1c-4-5.6-13.5-8.7-13.5-8.7c-0.1,0,0.1,0,0,0C1.1,12.4-1.7,23.7,3.8,33.1
		 M39.8,32.9c2-3.4,2.9-7.2,2.8-10.9l0-0.2C32,32.5,24.1,32.8,18.3,30c-3.4-1.6-3.9-4.4-3.9-4.4c-2.9,6.3-0.7,16-0.7,16c0,0,0,0,0,0
		C23.2,45.6,34.4,42.4,39.8,32.9"/>
	<path class="st3" d="M21,22c0.4-0.5,1.1-0.5,1.5-0.2c0.5,0.4,0.5,1.1,0.2,1.5s-1.1,0.5-1.5,0.2C20.7,23.1,20.6,22.5,21,22
		 M22.7,27.8c3.1,1,4.2,0,4.2,0c-1.7-1.7-2.1-2.1-1.7-3.4c0.8-2.5,0.9-3.7,0.5-5c-0.7-3.1-2.1-3.6-2.1-3.6c-0.6,2.3-0.7,2.8-2.1,3.2
		c-2.6,0.7-3.5,1.1-4.5,2c-2.4,2.1-2.1,3.7-2.1,3.7c2.3-0.7,2.8-0.8,3.8,0.2C20,26.2,21.4,27.3,22.7,27.8L22.7,27.8z"/>
</g>
</svg>
