<svg width="595" height="153" viewBox="0 0 595 153" fill="none" xmlns="http://www.w3.org/2000/svg">
<path d="M234.8 47C232.3 45.3 229.5 44.0001 226.5 43.4001C223 42.7001 219.4 42.3 215.8 42.3H192.9V111.6H206.7V83.6H215.1C218.6 83.6 222 83.3 225.4 82.5C228.5 81.9 231.4 80.7 234 79C236.5 77.4 238.6 75.2 240 72.5C241.6 69.4 242.3 66.1 242.2 62.6C242.3 59.4 241.6 56.2001 240.3 53.2001C239.1 50.9001 237.2 48.6 234.8 47ZM206.7 54.2001H214.6C216.4 54.2001 218.1 54.3 219.9 54.5C221.4 54.7 222.9 55.1 224.3 55.8C225.5 56.4 226.5 57.3001 227.3 58.4001C228.1 59.7001 228.5 61.2001 228.4 62.7001C228.5 64.3001 228.1 65.8 227.3 67.2C226.6 68.3 225.5 69.3001 224.3 69.9001C222.9 70.6001 221.4 71.1001 219.8 71.3001C218 71.6001 216.1 71.7 214.3 71.7H206.8L206.7 54.2001Z" fill="black"/>
<path d="M297 49.9001C293.3 47.2001 289.1 45.2 284.7 44.1C280.3 43 275.8 42.4 271.2 42.3H246.4V111.6H271.2C275.8 111.6 280.3 110.9 284.7 109.6C289.2 108.3 293.3 106.2 297 103.4C300.7 100.5 303.8 96.8 305.9 92.6C308.3 87.7 309.5 82.3001 309.3 76.9001C309.3 70.4001 308.1 64.9 305.9 60.5C303.8 56.4 300.8 52.8001 297 49.9001ZM260.1 54.4001H269.3C272.4 54.4001 275.5 54.7 278.5 55.3C281.4 55.9 284.2 57.0001 286.6 58.7001C289.1 60.5001 291.1 62.8 292.5 65.5C294 68.4 294.8 72.3001 294.8 76.9001C294.9 80.7001 294.2 84.5001 292.5 87.9001C291.1 90.6001 289.1 92.9 286.6 94.7C284.1 96.4 281.4 97.6001 278.5 98.3001C275.5 99.0001 272.4 99.4001 269.3 99.4001H260.1V54.4001Z" fill="black"/>
<path d="M314.5 111.7H328.3V83.2H358V71.4001H328.3V54.6H359.9V42.3H314.5V111.7Z" fill="black"/>
<path d="M397.3 81.9001H428.3V70H397.3V54.6H430V42.3H383.5V111.7H431.7V99.2H397.3V81.9001Z" fill="black"/>
<path d="M506.9 50.8H493.9V64.1H470.7L460.9 77.7L451.4 64.1H435.5L452.7 86.4001L433.4 111.6H449.1L460.7 95.5L472.2 111.6H488.3L468.9 86.4001L485.9 64.2V75H493.9V95.5C493.9 97.7 494.1 99.8001 494.5 101.9C494.9 103.9 495.7 105.8 496.9 107.4C498.2 109.1 499.8 110.4 501.8 111.2C504.3 112.2 506.9 112.7 509.6 112.6C511 112.6 512.4 112.5 513.7 112.3C515 112.1 516.3 111.8 517.5 111.3L518.1 111.1L517.6 100.2L516.4 100.7C515.7 101 515 101.2 514.2 101.4C513.4 101.5 512.7 101.6 511.9 101.6C509.7 101.6 508.3 101.1 507.7 100C507 98.6 506.6 97.0001 506.7 95.4001V75H518.2V64.1H506.7V50.8H506.9Z" fill="black"/>
<path d="M551.5 75.4999V63.2999L550.9 63.0999C550.4 62.8999 549.9 62.7999 549.3 62.7999C548.8 62.7999 548.3 62.7999 547.8 62.7999C544.7 62.6999 541.8 63.6999 539.3 65.3999C537.7 66.5999 536.3 67.9999 535.1 69.6999V64.0999H522.4V111.6H535.6V86.3C535.6 85.2 535.8 84.1999 536.1 83.0999C536.4 81.6999 537 80.4 537.8 79.3C538.7 78 539.9 76.8999 541.3 76.0999C543.1 75.0999 545.1 74.7 547.1 74.8C547.6 74.8 548.1 74.7999 548.6 74.8999C549.2 74.9999 549.8 75.1 550.4 75.3L551.5 75.4999Z" fill="black"/>
<path d="M593.5 75.8C592.9 73.4 591.7 71.2 590.1 69.3C588.3 67.2 586.1 65.6 583.5 64.6C580.2 63.3 576.6 62.7 573.1 62.8C569.5 62.8 565.9 63.4 562.5 64.7C559 65.9 555.9 67.8 553.2 70.3L552.6 70.9L559.7 79.2L560.4 78.5C561.9 77 563.7 75.8 565.7 75C567.8 74 570 73.5 572.3 73.6C574.7 73.5 577.2 74.2 579.2 75.5C581 76.7 582.1 78.9 581.9 81.1V81.4C578.6 81.4 575.2 81.6 571.7 81.9C568.2 82.2 564.7 82.9 561.3 84.1C558.3 85.1 555.7 86.8 553.5 89C551.3 91.4 550.2 94.6 550.3 97.8C550.2 100.3 550.8 102.8 552.1 105C553.2 106.9 554.8 108.4 556.6 109.7C558.4 110.9 560.3 111.7 562.4 112.2C564.4 112.7 566.4 112.9 568.4 112.9C571.5 113 574.7 112.3 577.5 110.9C579.2 110.1 580.8 108.9 582.1 107.4V111.8H594.5V82.9C594.5 80.5 594.2 78.1 593.5 75.8ZM580.2 90.8H581.9V91.6C582.1 94.5 581.1 97.4 579.1 99.6C577.2 101.5 574.4 102.5 570.7 102.5C569.8 102.5 568.9 102.4 568 102.2C567.2 102 566.4 101.8 565.7 101.4C565.1 101 564.5 100.5 564.1 99.9C563.7 99.2 563.5 98.4 563.5 97.7C563.4 96.4 564 95.1 564.9 94.3C566.1 93.3 567.4 92.6 568.9 92.2C570.7 91.7 572.5 91.3 574.3 91.2C576.4 90.8 578.3 90.8 580.2 90.8Z" fill="black"/>
<path d="M141.7 152.9H11.8999C5.5999 152.9 0.399902 147.8 0.399902 141.4V11.6C0.399902 5.29998 5.4999 0.0999756 11.8999 0.0999756H141.7C148 0.0999756 153.2 5.19998 153.2 11.6V141.4C153.1 147.8 148 152.9 141.7 152.9Z" fill="url(#paint0_linear_232_17)"/>
<path d="M127.1 89.2H32.4998L24.8998 116.7C24.1998 119.4 26.1998 122.1 28.9998 122.1H89.0998C107.8 119.6 122.3 106.2 127.1 89.2Z" fill="url(#paint1_linear_232_17)"/>
<path d="M76.6999 31.3999C72.2999 31.9999 67.9999 33.1999 64.0999 34.9999L110.5 113.3C123.3 103.7 130.7 87.6999 128.3 70.5999C124.9 45.4999 101.8 27.9999 76.6999 31.3999Z" fill="url(#paint2_linear_232_17)"/>
<path d="M64.3998 89.0999L96.6998 33.0999C90.3998 31.0999 83.6998 30.4999 76.6998 31.3999C60.6998 33.5999 47.0998 43.9999 40.6998 58.7999L32.4998 89.0999H64.3998Z" fill="url(#paint3_linear_232_17)"/>
<defs>
<linearGradient id="paint0_linear_232_17" x1="76.7655" y1="152.906" x2="76.7655" y2="0.187471" gradientUnits="userSpaceOnUse">
<stop offset="0.00118188" stop-color="#B40100"/>
<stop offset="0.2089" stop-color="#B90302"/>
<stop offset="0.4441" stop-color="#C60908"/>
<stop offset="0.6548" stop-color="#D91211"/>
<stop offset="0.7432" stop-color="#DF1B1A"/>
<stop offset="0.8871" stop-color="#EF3332"/>
<stop offset="1" stop-color="#FA4337"/>
</linearGradient>
<linearGradient id="paint1_linear_232_17" x1="28.8509" y1="126.093" x2="118.479" y2="74.3463" gradientUnits="userSpaceOnUse">
<stop stop-color="white"/>
<stop offset="0.3175" stop-color="#FFFDFD"/>
<stop offset="0.4318" stop-color="#FEF6F6"/>
<stop offset="0.5133" stop-color="#FCEBEB"/>
<stop offset="0.5792" stop-color="#FADADA"/>
<stop offset="0.6356" stop-color="#F7C4C4"/>
<stop offset="0.6847" stop-color="#F3A9A9"/>
<stop offset="0.6986" stop-color="#F2A0A0"/>
<stop offset="0.9138" stop-color="#FF0000"/>
</linearGradient>
<linearGradient id="paint2_linear_232_17" x1="129.33" y1="94.5115" x2="65.462" y2="33.5677" gradientUnits="userSpaceOnUse">
<stop stop-color="white"/>
<stop offset="0.2908" stop-color="#FFFDFD"/>
<stop offset="0.4218" stop-color="#FEF6F6"/>
<stop offset="0.5204" stop-color="#FEE9E9"/>
<stop offset="0.5913" stop-color="#FDDADA"/>
<stop offset="0.6173" stop-color="#FDD3D3"/>
<stop offset="0.6559" stop-color="#FDBEBE"/>
<stop offset="0.7024" stop-color="#FE9D9D"/>
<stop offset="0.7552" stop-color="#FE6F6F"/>
<stop offset="0.8123" stop-color="#FF3535"/>
<stop offset="0.8435" stop-color="#FF1212"/>
</linearGradient>
<linearGradient id="paint3_linear_232_17" x1="58.4762" y1="93.8802" x2="70.7135" y2="27.9247" gradientUnits="userSpaceOnUse">
<stop offset="0.0160492" stop-color="#F56762"/>
<stop offset="0.0340035" stop-color="#F67571"/>
<stop offset="0.1006" stop-color="#F9A6A3"/>
<stop offset="0.1588" stop-color="#FBC9C7"/>
<stop offset="0.2059" stop-color="#FDDEDE"/>
<stop offset="0.236" stop-color="#FDE6E6"/>
<stop offset="0.2651" stop-color="#FDEAEA"/>
<stop offset="0.3882" stop-color="#FEF6F6"/>
<stop offset="0.5583" stop-color="#FFFDFD"/>
<stop offset="1" stop-color="white"/>
</linearGradient>
</defs>
</svg>
